<svg id="visual" viewBox="0 0 900 600" width="900" height="600" xmlns="http://www.w3.org/2000/svg" xmlns:xlink="http://www.w3.org/1999/xlink" version="1.1"><rect x="0" y="0" width="900" height="600" fill="#5d0f0f"></rect><path d="M0 384L129 394L257 440L386 425L514 396L643 412L771 353L900 446L900 601L771 601L643 601L514 601L386 601L257 601L129 601L0 601Z" fill="#e68535"></path><path d="M0 403L129 449L257 408L386 401L514 476L643 441L771 466L900 444L900 601L771 601L643 601L514 601L386 601L257 601L129 601L0 601Z" fill="#d7702e"></path><path d="M0 442L129 461L257 475L386 503L514 468L643 482L771 478L900 439L900 601L771 601L643 601L514 601L386 601L257 601L129 601L0 601Z" fill="#c85c28"></path><path d="M0 526L129 521L257 534L386 529L514 490L643 516L771 539L900 541L900 601L771 601L643 601L514 601L386 601L257 601L129 601L0 601Z" fill="#b84823"></path><path d="M0 563L129 530L257 567L386 566L514 526L643 535L771 537L900 547L900 601L771 601L643 601L514 601L386 601L257 601L129 601L0 601Z" fill="#a7331e"></path></svg>