<svg id="visual" viewBox="0 0 960 540" width="960" height="540" xmlns="http://www.w3.org/2000/svg" xmlns:xlink="http://www.w3.org/1999/xlink" version="1.1"><rect x="0" y="0" width="960" height="540" fill="#FFFFFF"></rect><defs><linearGradient id="grad1_0" x1="43.8%" y1="100%" x2="100%" y2="0%"><stop offset="14.444444444444446%" stop-color="#ffffff" stop-opacity="1"></stop><stop offset="85.55555555555554%" stop-color="#ffffff" stop-opacity="1"></stop></linearGradient></defs><defs><linearGradient id="grad2_0" x1="0%" y1="100%" x2="56.3%" y2="0%"><stop offset="14.444444444444446%" stop-color="#ffffff" stop-opacity="1"></stop><stop offset="85.55555555555554%" stop-color="#ffffff" stop-opacity="1"></stop></linearGradient></defs><g transform="translate(960, 540)"><path d="M-459 0C-419.2 -46.2 -379.5 -92.3 -363.1 -150.4C-346.7 -208.5 -353.6 -278.5 -324.6 -324.6C-295.5 -370.6 -230.4 -392.7 -170.3 -411.1C-110.2 -429.5 -55.1 -444.3 0 -459L0 0Z" fill="#fbfc3d"></path></g><g transform="translate(0, 0)"><path d="M459 0C453.1 58.9 447.3 117.8 424.1 175.7C400.9 233.5 360.3 290.2 306.2 306.2C252 322.1 184.2 297.3 130.9 316C77.6 334.6 38.8 396.8 0 459L0 0Z" fill="#fbfc3d"></path></g></svg>