<?xml version="1.0" standalone="no"?>
<!DOCTYPE svg PUBLIC "-//W3C//DTD SVG 20010904//EN"
 "http://www.w3.org/TR/2001/REC-SVG-20010904/DTD/svg10.dtd">
<svg version="1.0" xmlns="http://www.w3.org/2000/svg"
 width="1000.000000pt" height="1000.000000pt" viewBox="0 0 1000.000000 1000.000000"
 preserveAspectRatio="xMidYMid meet">
<metadata>
Created by potrace 1.16, written by Peter Selinger 2001-2019
</metadata>
<g transform="translate(0.000000,1000.000000) scale(0.100000,-0.100000)"
fill="#000000" stroke="none">
<path d="M2863 7551 l-16 -40 -57 29 c-43 22 -60 26 -69 17 -17 -17 -13 -41
19 -102 17 -31 30 -59 30 -61 0 -2 -16 -4 -35 -4 -48 0 -46 -20 10 -88 43 -52
45 -57 45 -121 0 -53 -5 -73 -23 -101 -62 -92 -60 -86 -40 -106 15 -15 17 -31
14 -106 -4 -101 9 -168 49 -253 16 -33 27 -61 26 -62 -1 -2 -110 45 -241 105
l-238 107 -30 54 c-34 59 -40 130 -14 159 42 49 41 102 -3 102 -29 0 -96 -65
-134 -129 l-32 -56 -125 -5 c-96 -4 -130 -9 -149 -23 -13 -9 -36 -17 -51 -17
-45 0 -89 -20 -89 -41 0 -10 6 -19 13 -19 6 -1 0 -8 -15 -16 -33 -17 -36 -34
-8 -41 20 -5 20 -7 4 -24 -45 -49 33 -65 146 -29 143 46 402 13 471 -60 9 -9
138 -90 285 -180 148 -89 301 -182 339 -206 39 -24 170 -126 293 -228 122
-101 226 -186 231 -188 4 -2 42 -145 84 -318 96 -396 99 -361 -56 -580 -160
-227 -263 -451 -303 -657 -17 -93 -18 -177 -1 -190 21 -17 147 -55 162 -49 42
16 13 -25 -93 -131 -83 -83 -127 -136 -149 -178 -63 -123 -92 -169 -96 -155
-68 237 -243 621 -338 741 -16 20 -29 42 -29 49 0 7 14 -5 31 -26 43 -54 85
-80 104 -64 29 24 11 217 -31 328 -30 80 -30 81 1 52 24 -22 26 -23 42 -7 16
16 14 21 -42 77 -32 33 -55 63 -51 67 4 5 44 15 89 23 81 15 82 16 80 44 -1
16 -4 30 -6 33 -3 2 -56 -5 -118 -16 -102 -17 -116 -17 -131 -4 -16 14 -14 17
25 47 23 18 67 62 97 98 l55 66 7 -28 c5 -15 15 -34 24 -41 14 -11 19 -10 34
8 34 42 41 125 38 409 l-3 272 47 5 c50 6 93 28 102 54 10 26 -3 28 -24 5 -34
-37 -130 -54 -130 -24 0 5 28 22 62 38 102 48 209 165 192 209 -9 23 -24 18
-24 -8 0 -54 -111 -161 -199 -192 -43 -15 -71 -2 -35 18 34 18 102 99 134 158
33 62 35 69 20 69 -6 0 -15 -12 -21 -27 -23 -62 -123 -183 -151 -183 -17 0 -7
38 16 59 30 28 59 87 51 102 -4 5 -21 -14 -38 -42 -18 -29 -36 -54 -42 -56 -5
-2 -25 26 -44 62 -35 69 -90 125 -121 125 -11 0 -24 12 -32 27 -27 57 -170 81
-364 61 -171 -18 -447 -159 -660 -339 -97 -81 -146 -145 -168 -218 -20 -68
-21 -191 -2 -257 20 -67 71 -524 62 -557 -11 -46 -43 -67 -102 -67 -28 0 -75
5 -104 10 -29 6 -55 8 -57 6 -3 -2 0 -14 7 -25 9 -19 8 -21 -15 -21 -34 0 -32
-19 9 -66 18 -21 33 -43 34 -49 1 -16 82 -26 161 -19 67 5 79 10 120 44 64 53
148 97 200 104 51 8 130 45 181 85 35 27 36 27 195 29 137 1 256 13 360 37 11
3 5 -2 -13 -10 -42 -20 -172 -47 -189 -41 -9 4 -13 -7 -13 -38 0 -24 -6 -48
-12 -53 -7 -6 -51 -22 -98 -36 -90 -28 -219 -98 -258 -140 l-24 -25 81 -137
c45 -75 81 -142 81 -149 0 -27 -40 -65 -73 -68 -47 -4 -49 -34 -3 -53 19 -8
49 -15 66 -15 16 0 30 -3 30 -7 0 -3 -24 -54 -54 -112 -94 -185 -137 -337
-114 -402 8 -24 24 -38 72 -60 33 -16 66 -29 72 -29 6 0 21 -26 32 -57 12 -32
41 -114 66 -183 25 -69 63 -165 85 -214 34 -72 40 -95 35 -126 -11 -70 -2 -86
63 -99 65 -14 125 -12 130 5 2 7 -21 41 -52 78 l-56 65 -2 225 c-1 123 0 227
4 230 3 3 51 3 106 -1 98 -6 102 -7 108 -31 11 -45 75 -130 189 -254 123 -134
132 -146 142 -203 13 -77 8 -75 170 -75 121 0 146 3 151 15 9 25 -26 54 -73
61 -23 3 -51 15 -60 25 -17 18 -15 19 48 19 65 0 66 0 107 45 44 48 61 81 61
119 0 13 7 29 15 36 24 20 30 76 11 105 -16 24 -15 27 8 72 l25 48 1 -296 0
-296 -40 -12 -41 -12 3 -92 c3 -87 4 -91 27 -97 16 -3 27 -17 35 -40 28 -86
256 -126 472 -81 100 21 156 46 193 85 19 20 34 26 67 26 52 0 59 10 69 102 8
72 25 97 79 118 24 9 32 7 48 -7 32 -29 41 -54 44 -125 3 -76 7 -88 34 -88 11
0 30 -11 43 -24 37 -37 119 -49 287 -43 184 7 317 40 359 91 16 19 6 53 -20
61 -28 9 -23 23 9 27 26 3 27 5 27 58 0 30 4 61 8 68 6 8 1 12 -16 12 -24 0
-24 2 -30 122 -8 145 -7 341 2 383 l6 30 28 -37 c27 -35 28 -38 13 -60 -33
-47 -7 -136 63 -216 25 -29 37 -34 88 -39 l60 -5 -14 -40 c-7 -21 -10 -50 -7
-65 7 -26 7 -26 82 -19 41 3 93 6 115 6 36 0 46 6 89 53 27 28 65 75 85 104
l36 52 36 -19 c115 -58 422 -66 524 -13 22 11 28 20 25 41 -4 35 -51 58 -157
79 -78 16 -79 16 -70 40 5 13 7 34 4 46 -4 17 5 30 42 57 45 34 103 111 103
137 0 7 -11 31 -25 53 -45 71 -75 180 -75 271 0 74 6 99 61 260 33 97 63 205
67 239 l7 62 155 61 c85 34 163 67 172 72 14 8 25 61 54 260 28 192 41 255 55
270 23 26 52 94 45 110 -2 7 -23 15 -45 19 -45 7 -47 10 -26 46 8 14 14 34 15
45 0 11 44 75 97 143 77 96 102 122 122 122 37 0 84 42 139 124 56 83 92 170
92 220 l0 33 59 0 c99 1 187 53 239 142 22 38 27 58 27 113 0 58 -4 72 -30
109 -16 23 -46 51 -66 61 l-36 18 25 50 c88 179 -164 279 -360 143 -78 -53
-120 -154 -88 -212 9 -17 -2 -19 -168 -24 -97 -4 -210 -13 -249 -21 -284 -58
-170 -144 179 -134 75 2 134 1 130 -2 -4 -3 -33 -26 -65 -50 -67 -50 -110 -97
-101 -112 4 -5 22 -16 40 -24 19 -8 34 -18 34 -23 0 -16 -31 -41 -50 -41 -10
0 -21 -3 -23 -8 -3 -4 -18 -126 -33 -271 -27 -254 -29 -264 -55 -292 -18 -19
-33 -27 -44 -23 -12 5 -41 -17 -106 -82 l-89 -89 0 45 c0 77 -20 211 -45 307
-35 135 -79 217 -154 293 -35 35 -68 78 -74 95 -20 58 -74 130 -154 206 -87
81 -183 138 -279 165 -206 58 -193 56 -334 51 -372 -13 -600 -175 -789 -562
-39 -78 -62 -153 -97 -305 -19 -86 -65 -188 -99 -220 -27 -25 -25 -27 -65 76
-31 79 -31 79 -46 418 -12 260 -19 344 -30 360 -20 29 -18 133 4 172 37 67
728 1037 749 1051 13 9 59 17 115 20 76 5 109 2 181 -16 143 -36 200 -4 89 50
l-54 26 42 7 c24 4 51 11 61 17 20 10 26 39 9 39 -6 0 -8 10 -5 23 4 16 0 29
-14 41 -18 16 -31 18 -93 12 l-73 -7 33 26 c56 46 34 74 -40 51 -24 -8 -69
-25 -101 -40 -37 -17 -75 -26 -107 -26 -47 0 -51 2 -64 33 -24 58 -98 100
-112 63 -3 -7 5 -30 17 -50 13 -23 23 -60 26 -99 4 -53 1 -67 -19 -94 -30 -43
-782 -891 -786 -888 -2 2 10 42 27 89 44 125 63 238 59 361 -2 58 -1 105 2
105 4 0 11 -5 18 -12 9 -9 15 -9 23 -1 16 16 -15 115 -61 194 -51 86 -126 175
-183 218 -39 29 -45 38 -41 61 5 23 1 29 -30 44 -92 43 -292 58 -419 31 -38
-8 -88 -12 -110 -9 -28 4 -62 -1 -102 -15 -40 -13 -62 -16 -66 -9 -4 6 -19 7
-36 4 -22 -5 -34 -2 -48 14 -10 11 -24 20 -32 20 -7 0 -23 16 -34 35 -27 46
-47 44 -66 -4z m1948 -66 c16 -37 25 -45 54 -51 40 -7 114 9 165 36 49 27 112
51 118 46 8 -9 -10 -27 -49 -46 -65 -34 -50 -42 68 -39 73 3 108 0 110 -7 3
-8 -24 -14 -79 -19 -96 -7 -118 -12 -118 -26 0 -7 26 -8 69 -3 74 7 145 -1
136 -16 -3 -5 -41 -12 -86 -16 -106 -9 -105 -28 4 -61 42 -13 77 -28 77 -33 0
-14 -18 -12 -106 11 -90 25 -212 29 -291 10 l-51 -12 -368 -524 c-203 -288
-374 -524 -380 -524 -16 -1 -121 113 -129 139 -5 16 8 37 58 93 405 453 743
838 759 862 24 38 21 152 -5 204 -22 43 -21 44 4 30 11 -6 30 -30 40 -54z
m-1851 -30 c9 3 23 -1 30 -10 7 -8 22 -15 34 -15 11 0 27 -4 35 -9 10 -6 27
-3 50 9 52 26 96 33 118 19 16 -9 30 -8 69 5 99 32 274 40 378 15 74 -17 86
-25 48 -34 -37 -8 -44 -35 -9 -35 74 0 256 -191 314 -329 13 -32 13 -33 -4
-26 -10 4 -97 38 -193 75 -96 37 -183 70 -192 74 -19 9 -38 -19 -38 -54 0 -17
-4 -20 -17 -15 -84 37 -137 48 -253 52 -146 6 -227 -6 -259 -41 -16 -17 -27
-53 -42 -137 -17 -98 -19 -127 -10 -204 15 -125 63 -263 123 -348 18 -25 5
-20 -130 47 -150 75 -151 76 -176 128 -37 76 -59 182 -52 249 7 71 13 87 37
94 12 4 19 16 19 31 0 19 -5 24 -25 24 -30 0 -31 9 -4 44 16 21 22 45 25 112
l4 86 -37 41 -37 41 30 7 c66 13 68 26 14 85 -22 24 -40 48 -40 54 0 12 55
-14 65 -30 12 -20 37 -9 48 20 l11 30 24 -30 c16 -21 30 -29 42 -25z m712
-381 c8 -99 38 -180 86 -233 46 -51 86 -61 125 -31 35 28 61 114 55 186 -3 30
-4 54 -3 54 2 0 19 -7 38 -15 45 -18 52 -48 50 -190 -3 -212 -80 -440 -193
-567 -56 -65 -90 -78 -199 -78 -216 0 -392 121 -504 345 -60 121 -72 174 -71
325 0 171 11 206 74 237 114 57 386 25 449 -51 25 -29 39 -18 46 37 8 60 12
69 28 64 7 -2 15 -37 19 -83z m128 30 c52 -20 101 -44 108 -52 22 -28 14 -42
-24 -42 -28 0 -44 -8 -70 -34 -29 -29 -34 -41 -34 -82 l-1 -49 -24 28 c-32 36
-65 145 -65 213 0 30 3 54 7 54 4 0 50 -16 103 -36z m-1492 -58 c2 -10 -8 -34
-22 -55 -45 -65 -28 -180 36 -238 28 -27 384 -189 673 -308 133 -54 236 -108
305 -159 36 -27 79 -55 95 -63 67 -32 100 -126 93 -263 -2 -44 -8 -84 -14 -90
-9 -9 -69 35 -235 172 -212 175 -242 195 -566 392 -189 114 -345 212 -349 217
-12 19 -82 48 -157 63 -106 22 -230 21 -304 -3 -69 -22 -141 -30 -145 -17 -2
6 34 21 80 34 86 26 112 46 40 30 -90 -18 -115 -20 -122 -9 -9 13 24 27 88 36
68 11 66 24 -4 18 -38 -4 -60 -2 -60 5 0 15 25 22 77 22 35 0 46 4 50 19 6 22
56 31 182 31 l86 0 25 48 c29 55 115 145 133 139 6 -2 14 -11 15 -21z m4859
-526 c44 -26 73 -87 73 -150 0 -32 -5 -52 -12 -54 -7 -2 -35 -9 -63 -15 -27
-6 -70 -24 -95 -39 -45 -27 -45 -27 -111 -13 -54 11 -69 18 -78 38 -33 71 21
167 123 220 72 37 118 41 163 13z m-3197 -231 c19 -28 52 -63 72 -80 34 -27
36 -32 27 -62 -14 -49 -11 -89 10 -130 16 -32 20 -79 31 -364 l13 -328 104
-275 c56 -151 103 -278 103 -282 0 -5 -15 -8 -34 -8 -48 0 -736 69 -763 76
-17 5 -26 -1 -42 -27 -25 -40 -36 -96 -51 -247 -8 -86 -17 -126 -35 -163 -39
-77 -58 -172 -52 -266 3 -45 3 -84 0 -86 -2 -3 -36 5 -76 18 -71 21 -72 22
-75 58 -8 93 55 319 138 494 51 107 93 174 213 340 68 93 75 109 86 175 l13
73 -80 317 -79 317 14 53 c17 64 11 166 -16 244 l-18 55 31 -8 c17 -4 76 -8
132 -7 125 1 159 16 229 102 27 34 54 62 60 62 5 -1 26 -23 45 -51z m3339 -12
c68 -34 83 -177 26 -259 -37 -53 -120 -98 -179 -98 -83 1 -157 56 -184 138
-16 47 -6 68 18 39 18 -21 20 -21 47 -7 34 19 73 75 73 106 0 12 -7 29 -15 38
-8 8 -15 17 -15 19 0 6 71 33 105 41 28 6 94 -3 124 -17z m-322 -53 l21 -9
-22 -28 c-35 -43 -138 -60 -381 -61 -194 -1 -295 11 -295 35 0 22 90 49 225
69 76 11 423 7 452 -6z m422 -103 c2 -87 -59 -180 -146 -222 -54 -26 -152 -31
-193 -10 -37 20 -70 52 -87 86 l-15 30 33 -33 c82 -82 188 -93 287 -28 55 36
94 106 100 184 5 68 20 64 21 -7z m-464 -64 c0 -63 4 -79 28 -115 15 -23 44
-51 66 -61 21 -11 41 -27 44 -36 4 -8 -2 -43 -13 -77 -39 -125 -144 -264 -204
-270 -26 -3 -46 -22 -129 -125 l-98 -122 -43 30 -42 30 18 157 c9 86 21 201
26 255 5 54 12 100 15 103 3 4 26 9 51 11 38 5 51 1 98 -31 77 -51 123 -118
123 -178 0 -53 3 -55 45 -33 40 21 63 67 54 108 -23 109 -135 198 -269 213
-67 8 -95 19 -95 37 0 14 59 65 133 116 39 27 127 56 182 60 6 1 10 -30 10
-72z m-1683 -92 c177 -38 510 -177 542 -228 48 -74 68 -537 33 -740 -30 -171
-81 -294 -135 -321 -90 -45 -527 -106 -627 -86 -27 5 -31 10 -35 50 l-5 45
-163 17 c-181 18 -178 17 -276 109 -72 67 -99 115 -117 206 -20 107 17 278 92
426 l24 47 35 -24 c54 -36 106 -49 174 -44 69 6 126 31 173 78 27 27 38 31 75
28 l43 -3 -3 -44 c-6 -100 40 -224 105 -282 234 -205 611 -10 591 305 -11 171
-135 292 -313 304 -64 4 -73 7 -108 41 -31 30 -39 33 -47 21 -13 -20 -12 -23
5 -46 8 -10 15 -22 15 -26 0 -3 -24 -19 -53 -36 -59 -33 -129 -105 -154 -157
-14 -30 -22 -35 -50 -35 -18 0 -33 2 -33 5 0 3 9 34 21 68 17 50 20 78 16 145
-3 50 -1 82 5 82 17 0 69 41 63 50 -3 4 -22 4 -42 -1 -53 -12 -60 -11 -67 7
-4 11 6 20 37 34 51 24 84 25 179 5z m1550 -93 c60 -26 113 -74 137 -126 26
-53 26 -77 0 -110 -25 -31 -39 -33 -39 -6 0 34 -26 86 -67 131 -43 48 -118 99
-145 99 -12 0 -18 7 -18 21 0 18 5 20 44 15 25 -2 64 -13 88 -24z m-4096 -29
c75 -82 128 -286 129 -493 0 -127 -2 -139 -28 -194 -33 -70 -118 -179 -181
-231 -40 -32 -61 -40 -168 -63 -107 -23 -148 -26 -313 -26 l-190 -1 -60 33
c-70 37 -109 83 -142 161 -33 82 -30 117 16 187 21 32 54 77 73 99 l35 39 14
-29 c26 -53 62 -70 147 -69 121 0 227 57 263 140 18 39 18 47 6 77 -22 51 -71
70 -169 65 -43 -3 -78 -4 -78 -2 0 7 164 133 230 177 79 52 220 127 286 151
66 25 92 20 130 -21z m2275 7 c40 0 48 -3 53 -22 9 -37 7 -128 -4 -128 -5 0
-10 11 -10 24 0 14 -11 37 -24 53 -19 22 -32 28 -66 28 -36 0 -47 -6 -80 -42
-87 -93 -71 -230 30 -252 l35 -8 -40 -18 c-64 -29 -142 -31 -197 -5 -72 33
-73 39 -29 106 78 119 254 295 275 274 5 -5 31 -10 57 -10z m608 -117 c138
-71 190 -246 116 -392 -113 -224 -421 -250 -540 -47 -90 153 -17 365 153 443
l52 25 53 -33 c28 -17 69 -45 90 -62 61 -48 56 -22 -9 44 l-59 61 44 -5 c24
-3 69 -18 100 -34z m-3499 -249 c0 -28 33 -73 62 -85 16 -6 50 -9 78 -7 45 5
48 3 40 -13 -28 -51 -142 -102 -232 -103 -82 0 -121 22 -126 73 -4 40 13 61
92 113 64 41 86 47 86 22z m4396 -396 c13 -13 33 -31 44 -41 l21 -18 -34 -62
c-19 -34 -67 -125 -107 -202 -40 -77 -88 -168 -107 -202 l-34 -63 -80 0 c-67
0 -85 4 -112 22 -18 13 -34 24 -36 25 -2 1 11 20 30 42 29 34 40 39 76 40 l42
1 25 78 c13 42 27 104 31 137 8 70 16 83 103 188 72 85 96 95 138 55z m-2061
-120 c-9 -24 -20 -82 -23 -130 -4 -83 -6 -88 -27 -88 -19 0 -28 17 -69 125
-25 68 -46 126 -46 129 0 2 20 6 45 8 25 3 62 17 83 31 l37 25 9 -29 c6 -20 4
-40 -9 -71z m2161 -8 c8 0 14 -8 14 -19 0 -40 -62 -447 -69 -454 -19 -20 -436
-176 -445 -167 -15 15 -11 96 8 124 15 24 22 26 92 26 70 0 268 40 286 58 4 4
21 99 38 212 31 201 49 275 57 238 3 -10 11 -18 19 -18z m-2127 -37 c8 -22 47
-72 92 -118 l78 -80 -102 8 c-56 5 -104 11 -107 14 -15 15 2 213 18 213 5 0
14 -17 21 -37z m2025 -203 c-14 -85 -26 -160 -28 -165 -4 -11 -135 -49 -143
-41 -3 2 23 58 58 123 93 177 130 245 134 241 2 -2 -8 -73 -21 -158z m-3871
99 c-28 -26 -251 -99 -302 -99 -6 0 -11 14 -11 30 0 27 3 30 33 30 44 0 141
26 202 54 45 21 52 22 68 8 9 -9 14 -19 10 -23z m105 -206 c37 -101 52 -179
52 -275 0 -81 -10 -85 -62 -30 -70 74 -88 110 -88 182 0 36 -7 112 -15 169 -8
57 -12 108 -9 113 4 5 25 -8 48 -31 31 -31 49 -62 74 -128z m-433 15 c4 -24 5
-63 3 -87 l-3 -44 -105 -25 c-58 -13 -106 -26 -108 -27 -2 -2 13 -25 32 -53
40 -55 66 -120 66 -163 0 -39 -65 -129 -93 -130 -39 -2 -72 3 -92 14 -19 10
-18 11 11 17 44 10 54 18 70 56 17 40 21 28 -79 198 l-71 118 35 29 c70 58
244 137 306 138 18 1 23 -6 28 -41z m3751 -2 c16 -12 15 -16 -11 -48 -21 -27
-38 -37 -67 -41 -47 -6 -102 -46 -125 -90 -15 -29 -21 -92 -12 -126 15 -56
-359 -166 -611 -178 -91 -5 -118 -3 -127 8 -10 12 -43 303 -43 379 l0 28 115
1 c125 1 349 30 460 60 86 24 391 28 421 7z m7 -128 c13 -7 16 -15 11 -26 -4
-9 -8 -57 -9 -106 -1 -80 -3 -90 -24 -107 -31 -25 -46 -24 -106 9 -64 35 -80
66 -64 124 14 53 28 74 71 103 34 23 79 24 121 3z m-2060 -44 c89 -26 165 -52
169 -58 17 -25 7 -68 -20 -96 -116 -116 -498 -13 -538 144 -6 26 -5 28 17 20
43 -16 124 -9 160 13 19 12 38 22 42 22 4 1 81 -20 170 -45z m-1663 -54 c0
-68 -3 -79 -19 -85 -10 -3 -38 -23 -61 -45 -24 -22 -44 -39 -45 -38 -1 2 -10
26 -19 54 -9 28 -30 73 -47 99 -16 26 -29 48 -27 50 9 7 204 51 211 48 4 -2 7
-40 7 -83z m2610 10 c29 -71 -15 -151 -107 -197 -51 -25 -69 -28 -153 -28 -83
0 -102 3 -155 28 -61 28 -115 72 -115 92 0 6 15 9 39 7 22 -2 56 1 75 8 33 10
88 62 98 90 4 13 114 25 244 29 60 1 62 0 74 -29z m1256 -137 c-22 -122 -141
-433 -166 -433 -9 0 -20 141 -20 267 l0 102 50 27 c28 15 50 31 50 36 0 10 57
37 79 38 10 0 12 -9 7 -37z m-251 -45 l44 -12 0 -95 c0 -53 7 -188 16 -300 16
-211 13 -254 -21 -281 -11 -10 -14 -9 -14 3 0 26 -61 88 -105 108 -22 10 -57
19 -77 19 -37 0 -38 1 -38 38 0 51 -34 150 -65 187 l-24 30 0 -30 c0 -16 6
-81 13 -144 11 -106 11 -116 -7 -152 -21 -44 -26 -175 -7 -223 6 -16 7 -33 3
-37 -4 -4 -59 -9 -121 -11 l-113 -3 -28 85 c-31 95 -52 140 -75 159 -10 9 -16
30 -16 56 0 81 -114 261 -191 300 -15 8 -26 21 -24 28 3 6 1 49 -3 95 l-8 82
37 -5 c140 -21 637 88 703 154 19 19 19 19 49 -10 16 -16 49 -35 72 -41z
m-2565 -298 c0 -177 287 -475 529 -550 85 -27 128 -26 136 1 4 11 22 55 41 96
l35 76 29 -28 c34 -32 37 -47 15 -65 -22 -19 -18 -47 14 -100 29 -47 29 -48
15 -98 l-15 -51 -92 5 c-226 12 -500 66 -622 122 -51 24 -63 35 -63 54 0 12
-5 43 -11 68 -5 25 -10 64 -11 87 0 23 -5 45 -10 48 -7 4 -8 -20 -4 -74 8 -95
0 -104 -71 -77 -53 21 -118 89 -151 159 -31 68 -30 84 8 143 36 54 200 224
217 224 6 0 11 -18 11 -40z m225 -182 c143 -93 295 -156 423 -178 39 -6 72
-13 72 -15 0 -2 -18 -42 -40 -89 -45 -99 -48 -100 -153 -65 -188 63 -415 265
-487 434 -11 26 -20 57 -20 70 0 20 10 13 68 -45 37 -37 99 -88 137 -112z
m1561 108 c69 -70 124 -167 124 -218 0 -77 -159 -278 -219 -278 -25 0 -30 5
-35 35 -11 57 -23 40 -18 -26 3 -33 0 -65 -5 -70 -22 -22 -326 -65 -534 -76
l-125 -6 -22 58 -23 58 31 39 c32 39 32 47 -2 84 -16 17 -17 24 -6 30 7 4 23
14 34 21 20 13 24 9 82 -82 34 -52 67 -95 74 -95 23 0 132 56 183 95 70 53
139 120 191 187 47 60 94 151 94 181 0 20 88 127 104 127 6 0 38 -29 72 -64z
m-205 -99 c-28 -83 -164 -241 -276 -322 -62 -44 -136 -85 -154 -85 -14 0 -121
161 -115 172 3 4 15 8 28 8 72 0 305 110 441 209 44 32 82 56 83 55 2 -1 -1
-18 -7 -37z m894 -121 c92 -43 117 -90 87 -159 -40 -90 -123 -157 -194 -157
-42 0 -62 20 -77 75 -27 97 -5 201 49 239 44 31 72 32 135 2z m-1550 -363 c9
-21 17 -44 19 -53 2 -8 10 -31 19 -50 8 -19 31 -73 51 -120 l35 -85 -37 -32
c-20 -18 -40 -33 -44 -33 -4 0 -23 -16 -44 -35 -20 -19 -40 -35 -44 -35 -4 0
-22 16 -40 36 -26 29 -30 38 -19 46 12 8 11 9 -1 5 -17 -5 -42 17 -32 29 4 4
2 4 -4 1 -7 -4 -16 -1 -22 6 -10 12 -3 39 58 235 11 34 20 69 20 78 0 8 4 12
10 9 5 -3 7 0 4 9 -4 10 3 16 23 19 15 2 29 5 30 6 2 0 10 -16 18 -36z m-1952
-245 c6 -90 9 -104 32 -128 31 -32 32 -50 3 -50 -41 1 -66 33 -117 152 -28 64
-51 119 -51 122 0 3 29 6 63 6 l64 0 6 -102z m580 53 c9 -76 30 -108 80 -122
43 -13 107 -53 107 -69 0 -10 -101 13 -158 36 -24 9 -44 25 -48 37 -4 11 -29
45 -57 74 -43 46 -47 53 -31 59 11 3 35 12 54 19 19 8 38 14 41 14 3 1 9 -21
12 -48z"/>
<path d="M3305 7110 c-80 -17 -120 -73 -119 -167 1 -73 40 -162 87 -197 41
-30 181 -29 249 1 54 25 64 47 55 123 -17 143 -155 265 -272 240z m114 -35
c30 -15 111 -99 111 -115 0 -5 -11 -10 -24 -10 -56 0 -125 -95 -126 -174 l0
-39 -42 6 c-55 7 -100 54 -124 129 -49 159 67 275 205 203z"/>
<path d="M6936 6379 c-71 -56 10 -142 98 -105 57 24 72 71 34 106 -30 27 -96
27 -132 -1z"/>
<path d="M2630 5683 c-44 -17 -100 -67 -119 -106 -30 -62 -27 -102 9 -139 29
-28 35 -30 90 -26 46 3 70 11 102 34 125 88 113 245 -19 243 -26 0 -55 -3 -63
-6z m54 -129 c22 -4 44 0 65 10 38 20 39 12 2 -46 -52 -81 -165 -115 -217 -63
-24 24 -24 26 -9 62 9 21 27 55 41 77 l26 38 29 -35 c19 -23 42 -39 63 -43z"/>
<path d="M5289 5635 c-64 -35 -78 -160 -25 -229 36 -48 93 -66 141 -43 44 21
67 57 73 116 11 116 -98 206 -189 156z m157 -77 c11 -22 15 -47 11 -82 -4 -40
-11 -55 -37 -79 -43 -38 -91 -33 -135 15 l-29 33 42 6 c62 8 112 63 112 124 0
32 14 25 36 -17z"/>
<path d="M7244 6781 c-44 -20 -74 -54 -74 -83 0 -26 12 -29 74 -16 73 16 138
0 184 -45 26 -25 36 -29 50 -21 23 15 28 88 7 120 -39 60 -159 82 -241 45z"/>
<path d="M7503 6482 c31 -34 47 -90 47 -162 0 -79 -18 -133 -49 -150 -12 -6
-21 -20 -21 -30 0 -16 7 -20 30 -20 62 0 123 53 149 129 38 116 -32 251 -131
251 -39 0 -40 -1 -25 -18z"/>
</g>
</svg>
